<mxfile host="app.diagrams.net" modified="2023-04-21T07:41:36.552Z" agent="Mozilla/5.0 (Windows NT 10.0; Win64; x64) AppleWebKit/537.36 (KHTML, like Gecko) Chrome/112.0.0.0 Safari/537.36" etag="pvw6m6rdjUN5-UZX9czp" version="21.2.1" type="device">
  <diagram id="C5RBs43oDa-KdzZeNtuy" name="Page-1">
    <mxGraphModel dx="2625" dy="2719" grid="1" gridSize="10" guides="1" tooltips="1" connect="1" arrows="1" fold="1" page="1" pageScale="1" pageWidth="827" pageHeight="1169" math="0" shadow="0">
      <root>
        <mxCell id="WIyWlLk6GJQsqaUBKTNV-0" />
        <mxCell id="WIyWlLk6GJQsqaUBKTNV-1" parent="WIyWlLk6GJQsqaUBKTNV-0" />
        <mxCell id="M7i_olt2I8dJTzz4kXaU-43" style="edgeStyle=orthogonalEdgeStyle;curved=1;rounded=0;orthogonalLoop=1;jettySize=auto;html=1;entryX=0.5;entryY=0;entryDx=0;entryDy=0;fontSize=12;startSize=8;endSize=8;" edge="1" parent="WIyWlLk6GJQsqaUBKTNV-1" source="T8E9cE-NdubUiAm9jBST-0" target="T8E9cE-NdubUiAm9jBST-26">
          <mxGeometry relative="1" as="geometry" />
        </mxCell>
        <mxCell id="M7i_olt2I8dJTzz4kXaU-52" style="edgeStyle=orthogonalEdgeStyle;curved=1;rounded=0;orthogonalLoop=1;jettySize=auto;html=1;entryX=0.5;entryY=0;entryDx=0;entryDy=0;fontSize=12;startSize=8;endSize=8;exitX=0.491;exitY=0.999;exitDx=0;exitDy=0;exitPerimeter=0;" edge="1" parent="WIyWlLk6GJQsqaUBKTNV-1" source="T8E9cE-NdubUiAm9jBST-5" target="T8E9cE-NdubUiAm9jBST-59">
          <mxGeometry relative="1" as="geometry">
            <Array as="points">
              <mxPoint x="885" y="380" />
              <mxPoint x="695" y="380" />
            </Array>
          </mxGeometry>
        </mxCell>
        <mxCell id="T8E9cE-NdubUiAm9jBST-0" value="BehDat" style="swimlane;fontStyle=0;childLayout=stackLayout;horizontal=1;startSize=30;horizontalStack=0;resizeParent=1;resizeParentMax=0;resizeLast=0;collapsible=1;marginBottom=0;whiteSpace=wrap;html=1;" parent="WIyWlLk6GJQsqaUBKTNV-1" vertex="1">
          <mxGeometry x="816" y="180" width="140" height="180" as="geometry" />
        </mxCell>
        <mxCell id="T8E9cE-NdubUiAm9jBST-1" value="info" style="text;strokeColor=none;fillColor=none;align=left;verticalAlign=middle;spacingLeft=4;spacingRight=4;overflow=hidden;points=[[0,0.5],[1,0.5]];portConstraint=eastwest;rotatable=0;whiteSpace=wrap;html=1;" parent="T8E9cE-NdubUiAm9jBST-0" vertex="1">
          <mxGeometry y="30" width="140" height="30" as="geometry" />
        </mxCell>
        <mxCell id="T8E9cE-NdubUiAm9jBST-2" value="spikes" style="text;strokeColor=none;fillColor=none;align=left;verticalAlign=middle;spacingLeft=4;spacingRight=4;overflow=hidden;points=[[0,0.5],[1,0.5]];portConstraint=eastwest;rotatable=0;whiteSpace=wrap;html=1;" parent="T8E9cE-NdubUiAm9jBST-0" vertex="1">
          <mxGeometry y="60" width="140" height="30" as="geometry" />
        </mxCell>
        <mxCell id="T8E9cE-NdubUiAm9jBST-3" value="timestamps" style="text;strokeColor=none;fillColor=none;align=left;verticalAlign=middle;spacingLeft=4;spacingRight=4;overflow=hidden;points=[[0,0.5],[1,0.5]];portConstraint=eastwest;rotatable=0;whiteSpace=wrap;html=1;" parent="T8E9cE-NdubUiAm9jBST-0" vertex="1">
          <mxGeometry y="90" width="140" height="30" as="geometry" />
        </mxCell>
        <mxCell id="T8E9cE-NdubUiAm9jBST-4" value="bpod" style="text;strokeColor=none;fillColor=none;align=left;verticalAlign=middle;spacingLeft=4;spacingRight=4;overflow=hidden;points=[[0,0.5],[1,0.5]];portConstraint=eastwest;rotatable=0;whiteSpace=wrap;html=1;" parent="T8E9cE-NdubUiAm9jBST-0" vertex="1">
          <mxGeometry y="120" width="140" height="30" as="geometry" />
        </mxCell>
        <mxCell id="T8E9cE-NdubUiAm9jBST-5" value="coordinates" style="text;strokeColor=none;fillColor=none;align=left;verticalAlign=middle;spacingLeft=4;spacingRight=4;overflow=hidden;points=[[0,0.5],[1,0.5]];portConstraint=eastwest;rotatable=0;whiteSpace=wrap;html=1;" parent="T8E9cE-NdubUiAm9jBST-0" vertex="1">
          <mxGeometry y="150" width="140" height="30" as="geometry" />
        </mxCell>
        <mxCell id="M7i_olt2I8dJTzz4kXaU-48" style="edgeStyle=none;curved=1;rounded=0;orthogonalLoop=1;jettySize=auto;html=1;fontSize=12;startSize=8;endSize=8;" edge="1" parent="WIyWlLk6GJQsqaUBKTNV-1" source="T8E9cE-NdubUiAm9jBST-10" target="T8E9cE-NdubUiAm9jBST-14">
          <mxGeometry relative="1" as="geometry" />
        </mxCell>
        <mxCell id="T8E9cE-NdubUiAm9jBST-10" value="outcomes" style="swimlane;fontStyle=0;childLayout=stackLayout;horizontal=1;startSize=30;horizontalStack=0;resizeParent=1;resizeParentMax=0;resizeLast=0;collapsible=1;marginBottom=0;whiteSpace=wrap;html=1;" parent="WIyWlLk6GJQsqaUBKTNV-1" vertex="1">
          <mxGeometry x="1000" y="474" width="146" height="120" as="geometry" />
        </mxCell>
        <mxCell id="T8E9cE-NdubUiAm9jBST-11" value="Item 1" style="text;strokeColor=none;fillColor=none;align=left;verticalAlign=middle;spacingLeft=4;spacingRight=4;overflow=hidden;points=[[0,0.5],[1,0.5]];portConstraint=eastwest;rotatable=0;whiteSpace=wrap;html=1;" parent="T8E9cE-NdubUiAm9jBST-10" vertex="1">
          <mxGeometry y="30" width="146" height="30" as="geometry" />
        </mxCell>
        <mxCell id="T8E9cE-NdubUiAm9jBST-12" value="Item 2" style="text;strokeColor=none;fillColor=none;align=left;verticalAlign=middle;spacingLeft=4;spacingRight=4;overflow=hidden;points=[[0,0.5],[1,0.5]];portConstraint=eastwest;rotatable=0;whiteSpace=wrap;html=1;" parent="T8E9cE-NdubUiAm9jBST-10" vertex="1">
          <mxGeometry y="60" width="146" height="30" as="geometry" />
        </mxCell>
        <mxCell id="T8E9cE-NdubUiAm9jBST-13" value="Item 3" style="text;strokeColor=none;fillColor=none;align=left;verticalAlign=middle;spacingLeft=4;spacingRight=4;overflow=hidden;points=[[0,0.5],[1,0.5]];portConstraint=eastwest;rotatable=0;whiteSpace=wrap;html=1;" parent="T8E9cE-NdubUiAm9jBST-10" vertex="1">
          <mxGeometry y="90" width="146" height="30" as="geometry" />
        </mxCell>
        <mxCell id="T8E9cE-NdubUiAm9jBST-14" value="plot_performance" style="swimlane;fontStyle=0;childLayout=stackLayout;horizontal=1;startSize=30;horizontalStack=0;resizeParent=1;resizeParentMax=0;resizeLast=0;collapsible=1;marginBottom=0;whiteSpace=wrap;html=1;" parent="WIyWlLk6GJQsqaUBKTNV-1" vertex="1">
          <mxGeometry x="1000" y="614" width="146" height="120" as="geometry" />
        </mxCell>
        <mxCell id="T8E9cE-NdubUiAm9jBST-15" value="Item 1" style="text;strokeColor=none;fillColor=none;align=left;verticalAlign=middle;spacingLeft=4;spacingRight=4;overflow=hidden;points=[[0,0.5],[1,0.5]];portConstraint=eastwest;rotatable=0;whiteSpace=wrap;html=1;" parent="T8E9cE-NdubUiAm9jBST-14" vertex="1">
          <mxGeometry y="30" width="146" height="30" as="geometry" />
        </mxCell>
        <mxCell id="T8E9cE-NdubUiAm9jBST-16" value="Item 2" style="text;strokeColor=none;fillColor=none;align=left;verticalAlign=middle;spacingLeft=4;spacingRight=4;overflow=hidden;points=[[0,0.5],[1,0.5]];portConstraint=eastwest;rotatable=0;whiteSpace=wrap;html=1;" parent="T8E9cE-NdubUiAm9jBST-14" vertex="1">
          <mxGeometry y="60" width="146" height="30" as="geometry" />
        </mxCell>
        <mxCell id="T8E9cE-NdubUiAm9jBST-17" value="Item 3" style="text;strokeColor=none;fillColor=none;align=left;verticalAlign=middle;spacingLeft=4;spacingRight=4;overflow=hidden;points=[[0,0.5],[1,0.5]];portConstraint=eastwest;rotatable=0;whiteSpace=wrap;html=1;" parent="T8E9cE-NdubUiAm9jBST-14" vertex="1">
          <mxGeometry y="90" width="146" height="30" as="geometry" />
        </mxCell>
        <mxCell id="T8E9cE-NdubUiAm9jBST-18" value="sankey" style="swimlane;fontStyle=0;childLayout=stackLayout;horizontal=1;startSize=30;horizontalStack=0;resizeParent=1;resizeParentMax=0;resizeLast=0;collapsible=1;marginBottom=0;whiteSpace=wrap;html=1;" parent="WIyWlLk6GJQsqaUBKTNV-1" vertex="1">
          <mxGeometry x="1484" y="708" width="146" height="120" as="geometry" />
        </mxCell>
        <mxCell id="T8E9cE-NdubUiAm9jBST-19" value="Item 1" style="text;strokeColor=none;fillColor=none;align=left;verticalAlign=middle;spacingLeft=4;spacingRight=4;overflow=hidden;points=[[0,0.5],[1,0.5]];portConstraint=eastwest;rotatable=0;whiteSpace=wrap;html=1;" parent="T8E9cE-NdubUiAm9jBST-18" vertex="1">
          <mxGeometry y="30" width="146" height="30" as="geometry" />
        </mxCell>
        <mxCell id="T8E9cE-NdubUiAm9jBST-20" value="Item 2" style="text;strokeColor=none;fillColor=none;align=left;verticalAlign=middle;spacingLeft=4;spacingRight=4;overflow=hidden;points=[[0,0.5],[1,0.5]];portConstraint=eastwest;rotatable=0;whiteSpace=wrap;html=1;" parent="T8E9cE-NdubUiAm9jBST-18" vertex="1">
          <mxGeometry y="60" width="146" height="30" as="geometry" />
        </mxCell>
        <mxCell id="T8E9cE-NdubUiAm9jBST-21" value="Item 3" style="text;strokeColor=none;fillColor=none;align=left;verticalAlign=middle;spacingLeft=4;spacingRight=4;overflow=hidden;points=[[0,0.5],[1,0.5]];portConstraint=eastwest;rotatable=0;whiteSpace=wrap;html=1;" parent="T8E9cE-NdubUiAm9jBST-18" vertex="1">
          <mxGeometry y="90" width="146" height="30" as="geometry" />
        </mxCell>
        <mxCell id="M7i_olt2I8dJTzz4kXaU-31" style="edgeStyle=orthogonalEdgeStyle;curved=1;rounded=0;orthogonalLoop=1;jettySize=auto;html=1;entryX=0.5;entryY=0;entryDx=0;entryDy=0;fontSize=12;startSize=8;endSize=8;" edge="1" parent="WIyWlLk6GJQsqaUBKTNV-1" target="M7i_olt2I8dJTzz4kXaU-30">
          <mxGeometry relative="1" as="geometry">
            <mxPoint x="1190" y="351" as="sourcePoint" />
            <Array as="points">
              <mxPoint x="1190" y="480" />
              <mxPoint x="1390" y="480" />
            </Array>
          </mxGeometry>
        </mxCell>
        <mxCell id="T8E9cE-NdubUiAm9jBST-22" value="find_bpod_event" style="swimlane;fontStyle=0;childLayout=stackLayout;horizontal=1;startSize=30;horizontalStack=0;resizeParent=1;resizeParentMax=0;resizeLast=0;collapsible=1;marginBottom=0;whiteSpace=wrap;html=1;" parent="WIyWlLk6GJQsqaUBKTNV-1" vertex="1">
          <mxGeometry x="1107" y="139" width="146" height="210" as="geometry" />
        </mxCell>
        <mxCell id="T8E9cE-NdubUiAm9jBST-23" value="event - required param" style="text;strokeColor=none;fillColor=none;align=left;verticalAlign=middle;spacingLeft=4;spacingRight=4;overflow=hidden;points=[[0,0.5],[1,0.5]];portConstraint=eastwest;rotatable=0;whiteSpace=wrap;html=1;" parent="T8E9cE-NdubUiAm9jBST-22" vertex="1">
          <mxGeometry y="30" width="146" height="30" as="geometry" />
        </mxCell>
        <mxCell id="T8E9cE-NdubUiAm9jBST-24" value="trialType" style="text;strokeColor=none;fillColor=none;align=left;verticalAlign=middle;spacingLeft=4;spacingRight=4;overflow=hidden;points=[[0,0.5],[1,0.5]];portConstraint=eastwest;rotatable=0;whiteSpace=wrap;html=1;" parent="T8E9cE-NdubUiAm9jBST-22" vertex="1">
          <mxGeometry y="60" width="146" height="30" as="geometry" />
        </mxCell>
        <mxCell id="T8E9cE-NdubUiAm9jBST-25" value="outcome" style="text;strokeColor=none;fillColor=none;align=left;verticalAlign=middle;spacingLeft=4;spacingRight=4;overflow=hidden;points=[[0,0.5],[1,0.5]];portConstraint=eastwest;rotatable=0;whiteSpace=wrap;html=1;" parent="T8E9cE-NdubUiAm9jBST-22" vertex="1">
          <mxGeometry y="90" width="146" height="30" as="geometry" />
        </mxCell>
        <mxCell id="SHkvdKnQyJB9asYvrBUC-51" value="trials" style="text;strokeColor=none;fillColor=none;align=left;verticalAlign=middle;spacingLeft=4;spacingRight=4;overflow=hidden;points=[[0,0.5],[1,0.5]];portConstraint=eastwest;rotatable=0;whiteSpace=wrap;html=1;" parent="T8E9cE-NdubUiAm9jBST-22" vertex="1">
          <mxGeometry y="120" width="146" height="30" as="geometry" />
        </mxCell>
        <mxCell id="SHkvdKnQyJB9asYvrBUC-57" value="offset" style="text;strokeColor=none;fillColor=none;align=left;verticalAlign=middle;spacingLeft=4;spacingRight=4;overflow=hidden;points=[[0,0.5],[1,0.5]];portConstraint=eastwest;rotatable=0;whiteSpace=wrap;html=1;" parent="T8E9cE-NdubUiAm9jBST-22" vertex="1">
          <mxGeometry y="150" width="146" height="30" as="geometry" />
        </mxCell>
        <mxCell id="M7i_olt2I8dJTzz4kXaU-16" value="eos" style="text;strokeColor=none;fillColor=none;align=left;verticalAlign=middle;spacingLeft=4;spacingRight=4;overflow=hidden;points=[[0,0.5],[1,0.5]];portConstraint=eastwest;rotatable=0;whiteSpace=wrap;html=1;" vertex="1" parent="T8E9cE-NdubUiAm9jBST-22">
          <mxGeometry y="180" width="146" height="30" as="geometry" />
        </mxCell>
        <mxCell id="T8E9cE-NdubUiAm9jBST-26" value="trialize_spikes" style="swimlane;fontStyle=0;childLayout=stackLayout;horizontal=1;startSize=30;horizontalStack=0;resizeParent=1;resizeParentMax=0;resizeLast=0;collapsible=1;marginBottom=0;whiteSpace=wrap;html=1;" parent="WIyWlLk6GJQsqaUBKTNV-1" vertex="1">
          <mxGeometry x="813" y="474" width="146" height="120" as="geometry" />
        </mxCell>
        <mxCell id="T8E9cE-NdubUiAm9jBST-27" value="Item 1" style="text;strokeColor=none;fillColor=none;align=left;verticalAlign=middle;spacingLeft=4;spacingRight=4;overflow=hidden;points=[[0,0.5],[1,0.5]];portConstraint=eastwest;rotatable=0;whiteSpace=wrap;html=1;" parent="T8E9cE-NdubUiAm9jBST-26" vertex="1">
          <mxGeometry y="30" width="146" height="30" as="geometry" />
        </mxCell>
        <mxCell id="T8E9cE-NdubUiAm9jBST-28" value="Item 2" style="text;strokeColor=none;fillColor=none;align=left;verticalAlign=middle;spacingLeft=4;spacingRight=4;overflow=hidden;points=[[0,0.5],[1,0.5]];portConstraint=eastwest;rotatable=0;whiteSpace=wrap;html=1;" parent="T8E9cE-NdubUiAm9jBST-26" vertex="1">
          <mxGeometry y="60" width="146" height="30" as="geometry" />
        </mxCell>
        <mxCell id="T8E9cE-NdubUiAm9jBST-29" value="Item 3" style="text;strokeColor=none;fillColor=none;align=left;verticalAlign=middle;spacingLeft=4;spacingRight=4;overflow=hidden;points=[[0,0.5],[1,0.5]];portConstraint=eastwest;rotatable=0;whiteSpace=wrap;html=1;" parent="T8E9cE-NdubUiAm9jBST-26" vertex="1">
          <mxGeometry y="90" width="146" height="30" as="geometry" />
        </mxCell>
        <mxCell id="M7i_olt2I8dJTzz4kXaU-66" style="edgeStyle=none;curved=1;rounded=0;orthogonalLoop=1;jettySize=auto;html=1;fontSize=12;startSize=8;endSize=8;" edge="1" parent="WIyWlLk6GJQsqaUBKTNV-1" source="T8E9cE-NdubUiAm9jBST-30" target="T8E9cE-NdubUiAm9jBST-38">
          <mxGeometry relative="1" as="geometry" />
        </mxCell>
        <mxCell id="M7i_olt2I8dJTzz4kXaU-67" style="edgeStyle=orthogonalEdgeStyle;curved=1;rounded=0;orthogonalLoop=1;jettySize=auto;html=1;entryX=0.5;entryY=0;entryDx=0;entryDy=0;fontSize=12;startSize=8;endSize=8;" edge="1" parent="WIyWlLk6GJQsqaUBKTNV-1" source="T8E9cE-NdubUiAm9jBST-30" target="T8E9cE-NdubUiAm9jBST-42">
          <mxGeometry relative="1" as="geometry">
            <Array as="points">
              <mxPoint x="1557" y="1010" />
              <mxPoint x="1389" y="1010" />
            </Array>
          </mxGeometry>
        </mxCell>
        <mxCell id="T8E9cE-NdubUiAm9jBST-30" value="bin_spikes" style="swimlane;fontStyle=0;childLayout=stackLayout;horizontal=1;startSize=30;horizontalStack=0;resizeParent=1;resizeParentMax=0;resizeLast=0;collapsible=1;marginBottom=0;whiteSpace=wrap;html=1;" parent="WIyWlLk6GJQsqaUBKTNV-1" vertex="1">
          <mxGeometry x="1484" y="868" width="146" height="120" as="geometry" />
        </mxCell>
        <mxCell id="T8E9cE-NdubUiAm9jBST-31" value="Item 1" style="text;strokeColor=none;fillColor=none;align=left;verticalAlign=middle;spacingLeft=4;spacingRight=4;overflow=hidden;points=[[0,0.5],[1,0.5]];portConstraint=eastwest;rotatable=0;whiteSpace=wrap;html=1;" parent="T8E9cE-NdubUiAm9jBST-30" vertex="1">
          <mxGeometry y="30" width="146" height="30" as="geometry" />
        </mxCell>
        <mxCell id="T8E9cE-NdubUiAm9jBST-32" value="Item 2" style="text;strokeColor=none;fillColor=none;align=left;verticalAlign=middle;spacingLeft=4;spacingRight=4;overflow=hidden;points=[[0,0.5],[1,0.5]];portConstraint=eastwest;rotatable=0;whiteSpace=wrap;html=1;" parent="T8E9cE-NdubUiAm9jBST-30" vertex="1">
          <mxGeometry y="60" width="146" height="30" as="geometry" />
        </mxCell>
        <mxCell id="T8E9cE-NdubUiAm9jBST-33" value="Item 3" style="text;strokeColor=none;fillColor=none;align=left;verticalAlign=middle;spacingLeft=4;spacingRight=4;overflow=hidden;points=[[0,0.5],[1,0.5]];portConstraint=eastwest;rotatable=0;whiteSpace=wrap;html=1;" parent="T8E9cE-NdubUiAm9jBST-30" vertex="1">
          <mxGeometry y="90" width="146" height="30" as="geometry" />
        </mxCell>
        <mxCell id="M7i_olt2I8dJTzz4kXaU-65" style="edgeStyle=none;curved=1;rounded=0;orthogonalLoop=1;jettySize=auto;html=1;entryX=0.5;entryY=0;entryDx=0;entryDy=0;fontSize=12;startSize=8;endSize=8;" edge="1" parent="WIyWlLk6GJQsqaUBKTNV-1" source="T8E9cE-NdubUiAm9jBST-34" target="T8E9cE-NdubUiAm9jBST-42">
          <mxGeometry relative="1" as="geometry" />
        </mxCell>
        <mxCell id="M7i_olt2I8dJTzz4kXaU-68" style="edgeStyle=orthogonalEdgeStyle;curved=1;rounded=0;orthogonalLoop=1;jettySize=auto;html=1;entryX=0.5;entryY=0;entryDx=0;entryDy=0;fontSize=12;startSize=8;endSize=8;" edge="1" parent="WIyWlLk6GJQsqaUBKTNV-1" source="T8E9cE-NdubUiAm9jBST-34" target="T8E9cE-NdubUiAm9jBST-38">
          <mxGeometry relative="1" as="geometry">
            <Array as="points">
              <mxPoint x="1389" y="1010" />
              <mxPoint x="1557" y="1010" />
            </Array>
          </mxGeometry>
        </mxCell>
        <mxCell id="T8E9cE-NdubUiAm9jBST-34" value="bin_neuron" style="swimlane;fontStyle=0;childLayout=stackLayout;horizontal=1;startSize=30;horizontalStack=0;resizeParent=1;resizeParentMax=0;resizeLast=0;collapsible=1;marginBottom=0;whiteSpace=wrap;html=1;" parent="WIyWlLk6GJQsqaUBKTNV-1" vertex="1">
          <mxGeometry x="1316" y="868" width="146" height="120" as="geometry" />
        </mxCell>
        <mxCell id="T8E9cE-NdubUiAm9jBST-35" value="Item 1" style="text;strokeColor=none;fillColor=none;align=left;verticalAlign=middle;spacingLeft=4;spacingRight=4;overflow=hidden;points=[[0,0.5],[1,0.5]];portConstraint=eastwest;rotatable=0;whiteSpace=wrap;html=1;" parent="T8E9cE-NdubUiAm9jBST-34" vertex="1">
          <mxGeometry y="30" width="146" height="30" as="geometry" />
        </mxCell>
        <mxCell id="T8E9cE-NdubUiAm9jBST-36" value="Item 2" style="text;strokeColor=none;fillColor=none;align=left;verticalAlign=middle;spacingLeft=4;spacingRight=4;overflow=hidden;points=[[0,0.5],[1,0.5]];portConstraint=eastwest;rotatable=0;whiteSpace=wrap;html=1;" parent="T8E9cE-NdubUiAm9jBST-34" vertex="1">
          <mxGeometry y="60" width="146" height="30" as="geometry" />
        </mxCell>
        <mxCell id="T8E9cE-NdubUiAm9jBST-37" value="Item 3" style="text;strokeColor=none;fillColor=none;align=left;verticalAlign=middle;spacingLeft=4;spacingRight=4;overflow=hidden;points=[[0,0.5],[1,0.5]];portConstraint=eastwest;rotatable=0;whiteSpace=wrap;html=1;" parent="T8E9cE-NdubUiAm9jBST-34" vertex="1">
          <mxGeometry y="90" width="146" height="30" as="geometry" />
        </mxCell>
        <mxCell id="T8E9cE-NdubUiAm9jBST-38" value="raster" style="swimlane;fontStyle=0;childLayout=stackLayout;horizontal=1;startSize=30;horizontalStack=0;resizeParent=1;resizeParentMax=0;resizeLast=0;collapsible=1;marginBottom=0;whiteSpace=wrap;html=1;" parent="WIyWlLk6GJQsqaUBKTNV-1" vertex="1">
          <mxGeometry x="1484" y="1030" width="146" height="120" as="geometry" />
        </mxCell>
        <mxCell id="T8E9cE-NdubUiAm9jBST-39" value="Item 1" style="text;strokeColor=none;fillColor=none;align=left;verticalAlign=middle;spacingLeft=4;spacingRight=4;overflow=hidden;points=[[0,0.5],[1,0.5]];portConstraint=eastwest;rotatable=0;whiteSpace=wrap;html=1;" parent="T8E9cE-NdubUiAm9jBST-38" vertex="1">
          <mxGeometry y="30" width="146" height="30" as="geometry" />
        </mxCell>
        <mxCell id="T8E9cE-NdubUiAm9jBST-40" value="Item 2" style="text;strokeColor=none;fillColor=none;align=left;verticalAlign=middle;spacingLeft=4;spacingRight=4;overflow=hidden;points=[[0,0.5],[1,0.5]];portConstraint=eastwest;rotatable=0;whiteSpace=wrap;html=1;" parent="T8E9cE-NdubUiAm9jBST-38" vertex="1">
          <mxGeometry y="60" width="146" height="30" as="geometry" />
        </mxCell>
        <mxCell id="T8E9cE-NdubUiAm9jBST-41" value="Item 3" style="text;strokeColor=none;fillColor=none;align=left;verticalAlign=middle;spacingLeft=4;spacingRight=4;overflow=hidden;points=[[0,0.5],[1,0.5]];portConstraint=eastwest;rotatable=0;whiteSpace=wrap;html=1;" parent="T8E9cE-NdubUiAm9jBST-38" vertex="1">
          <mxGeometry y="90" width="146" height="30" as="geometry" />
        </mxCell>
        <mxCell id="T8E9cE-NdubUiAm9jBST-42" value="psth" style="swimlane;fontStyle=0;childLayout=stackLayout;horizontal=1;startSize=30;horizontalStack=0;resizeParent=1;resizeParentMax=0;resizeLast=0;collapsible=1;marginBottom=0;whiteSpace=wrap;html=1;" parent="WIyWlLk6GJQsqaUBKTNV-1" vertex="1">
          <mxGeometry x="1316" y="1030" width="146" height="120" as="geometry" />
        </mxCell>
        <mxCell id="T8E9cE-NdubUiAm9jBST-43" value="Item 1" style="text;strokeColor=none;fillColor=none;align=left;verticalAlign=middle;spacingLeft=4;spacingRight=4;overflow=hidden;points=[[0,0.5],[1,0.5]];portConstraint=eastwest;rotatable=0;whiteSpace=wrap;html=1;" parent="T8E9cE-NdubUiAm9jBST-42" vertex="1">
          <mxGeometry y="30" width="146" height="30" as="geometry" />
        </mxCell>
        <mxCell id="T8E9cE-NdubUiAm9jBST-44" value="Item 2" style="text;strokeColor=none;fillColor=none;align=left;verticalAlign=middle;spacingLeft=4;spacingRight=4;overflow=hidden;points=[[0,0.5],[1,0.5]];portConstraint=eastwest;rotatable=0;whiteSpace=wrap;html=1;" parent="T8E9cE-NdubUiAm9jBST-42" vertex="1">
          <mxGeometry y="60" width="146" height="30" as="geometry" />
        </mxCell>
        <mxCell id="T8E9cE-NdubUiAm9jBST-45" value="Item 3" style="text;strokeColor=none;fillColor=none;align=left;verticalAlign=middle;spacingLeft=4;spacingRight=4;overflow=hidden;points=[[0,0.5],[1,0.5]];portConstraint=eastwest;rotatable=0;whiteSpace=wrap;html=1;" parent="T8E9cE-NdubUiAm9jBST-42" vertex="1">
          <mxGeometry y="90" width="146" height="30" as="geometry" />
        </mxCell>
        <mxCell id="T8E9cE-NdubUiAm9jBST-46" value="z_score" style="swimlane;fontStyle=0;childLayout=stackLayout;horizontal=1;startSize=30;horizontalStack=0;resizeParent=1;resizeParentMax=0;resizeLast=0;collapsible=1;marginBottom=0;whiteSpace=wrap;html=1;" parent="WIyWlLk6GJQsqaUBKTNV-1" vertex="1">
          <mxGeometry x="812" y="828" width="146" height="120" as="geometry" />
        </mxCell>
        <mxCell id="T8E9cE-NdubUiAm9jBST-47" value="Item 1" style="text;strokeColor=none;fillColor=none;align=left;verticalAlign=middle;spacingLeft=4;spacingRight=4;overflow=hidden;points=[[0,0.5],[1,0.5]];portConstraint=eastwest;rotatable=0;whiteSpace=wrap;html=1;" parent="T8E9cE-NdubUiAm9jBST-46" vertex="1">
          <mxGeometry y="30" width="146" height="30" as="geometry" />
        </mxCell>
        <mxCell id="T8E9cE-NdubUiAm9jBST-48" value="Item 2" style="text;strokeColor=none;fillColor=none;align=left;verticalAlign=middle;spacingLeft=4;spacingRight=4;overflow=hidden;points=[[0,0.5],[1,0.5]];portConstraint=eastwest;rotatable=0;whiteSpace=wrap;html=1;" parent="T8E9cE-NdubUiAm9jBST-46" vertex="1">
          <mxGeometry y="60" width="146" height="30" as="geometry" />
        </mxCell>
        <mxCell id="T8E9cE-NdubUiAm9jBST-49" value="Item 3" style="text;strokeColor=none;fillColor=none;align=left;verticalAlign=middle;spacingLeft=4;spacingRight=4;overflow=hidden;points=[[0,0.5],[1,0.5]];portConstraint=eastwest;rotatable=0;whiteSpace=wrap;html=1;" parent="T8E9cE-NdubUiAm9jBST-46" vertex="1">
          <mxGeometry y="90" width="146" height="30" as="geometry" />
        </mxCell>
        <mxCell id="T8E9cE-NdubUiAm9jBST-50" value="trialize_mono_excitatory" style="swimlane;fontStyle=0;childLayout=stackLayout;horizontal=1;startSize=30;horizontalStack=0;resizeParent=1;resizeParentMax=0;resizeLast=0;collapsible=1;marginBottom=0;whiteSpace=wrap;html=1;" parent="WIyWlLk6GJQsqaUBKTNV-1" vertex="1">
          <mxGeometry x="310" y="828" width="146" height="120" as="geometry" />
        </mxCell>
        <mxCell id="T8E9cE-NdubUiAm9jBST-51" value="Item 1" style="text;strokeColor=none;fillColor=none;align=left;verticalAlign=middle;spacingLeft=4;spacingRight=4;overflow=hidden;points=[[0,0.5],[1,0.5]];portConstraint=eastwest;rotatable=0;whiteSpace=wrap;html=1;" parent="T8E9cE-NdubUiAm9jBST-50" vertex="1">
          <mxGeometry y="30" width="146" height="30" as="geometry" />
        </mxCell>
        <mxCell id="T8E9cE-NdubUiAm9jBST-52" value="Item 2" style="text;strokeColor=none;fillColor=none;align=left;verticalAlign=middle;spacingLeft=4;spacingRight=4;overflow=hidden;points=[[0,0.5],[1,0.5]];portConstraint=eastwest;rotatable=0;whiteSpace=wrap;html=1;" parent="T8E9cE-NdubUiAm9jBST-50" vertex="1">
          <mxGeometry y="60" width="146" height="30" as="geometry" />
        </mxCell>
        <mxCell id="T8E9cE-NdubUiAm9jBST-53" value="Item 3" style="text;strokeColor=none;fillColor=none;align=left;verticalAlign=middle;spacingLeft=4;spacingRight=4;overflow=hidden;points=[[0,0.5],[1,0.5]];portConstraint=eastwest;rotatable=0;whiteSpace=wrap;html=1;" parent="T8E9cE-NdubUiAm9jBST-50" vertex="1">
          <mxGeometry y="90" width="146" height="30" as="geometry" />
        </mxCell>
        <mxCell id="T8E9cE-NdubUiAm9jBST-55" value="plot_xcorr" style="swimlane;fontStyle=0;childLayout=stackLayout;horizontal=1;startSize=30;horizontalStack=0;resizeParent=1;resizeParentMax=0;resizeLast=0;collapsible=1;marginBottom=0;whiteSpace=wrap;html=1;" parent="WIyWlLk6GJQsqaUBKTNV-1" vertex="1">
          <mxGeometry x="643" y="1030" width="146" height="120" as="geometry" />
        </mxCell>
        <mxCell id="T8E9cE-NdubUiAm9jBST-56" value="Item 1" style="text;strokeColor=none;fillColor=none;align=left;verticalAlign=middle;spacingLeft=4;spacingRight=4;overflow=hidden;points=[[0,0.5],[1,0.5]];portConstraint=eastwest;rotatable=0;whiteSpace=wrap;html=1;" parent="T8E9cE-NdubUiAm9jBST-55" vertex="1">
          <mxGeometry y="30" width="146" height="30" as="geometry" />
        </mxCell>
        <mxCell id="T8E9cE-NdubUiAm9jBST-57" value="Item 2" style="text;strokeColor=none;fillColor=none;align=left;verticalAlign=middle;spacingLeft=4;spacingRight=4;overflow=hidden;points=[[0,0.5],[1,0.5]];portConstraint=eastwest;rotatable=0;whiteSpace=wrap;html=1;" parent="T8E9cE-NdubUiAm9jBST-55" vertex="1">
          <mxGeometry y="60" width="146" height="30" as="geometry" />
        </mxCell>
        <mxCell id="T8E9cE-NdubUiAm9jBST-58" value="Item 3" style="text;strokeColor=none;fillColor=none;align=left;verticalAlign=middle;spacingLeft=4;spacingRight=4;overflow=hidden;points=[[0,0.5],[1,0.5]];portConstraint=eastwest;rotatable=0;whiteSpace=wrap;html=1;" parent="T8E9cE-NdubUiAm9jBST-55" vertex="1">
          <mxGeometry y="90" width="146" height="30" as="geometry" />
        </mxCell>
        <mxCell id="T8E9cE-NdubUiAm9jBST-59" value="find_mono" style="swimlane;fontStyle=0;childLayout=stackLayout;horizontal=1;startSize=30;horizontalStack=0;resizeParent=1;resizeParentMax=0;resizeLast=0;collapsible=1;marginBottom=0;whiteSpace=wrap;html=1;" parent="WIyWlLk6GJQsqaUBKTNV-1" vertex="1">
          <mxGeometry x="622" y="594" width="146" height="150" as="geometry" />
        </mxCell>
        <mxCell id="T8E9cE-NdubUiAm9jBST-60" value="updates the calling object" style="text;strokeColor=none;fillColor=none;align=left;verticalAlign=middle;spacingLeft=4;spacingRight=4;overflow=hidden;points=[[0,0.5],[1,0.5]];portConstraint=eastwest;rotatable=0;whiteSpace=wrap;html=1;" parent="T8E9cE-NdubUiAm9jBST-59" vertex="1">
          <mxGeometry y="30" width="146" height="30" as="geometry" />
        </mxCell>
        <mxCell id="M7i_olt2I8dJTzz4kXaU-53" value="spikes.exciteOutput" style="text;strokeColor=none;fillColor=none;align=left;verticalAlign=middle;spacingLeft=4;spacingRight=4;overflow=hidden;points=[[0,0.5],[1,0.5]];portConstraint=eastwest;rotatable=0;whiteSpace=wrap;html=1;" vertex="1" parent="T8E9cE-NdubUiAm9jBST-59">
          <mxGeometry y="60" width="146" height="30" as="geometry" />
        </mxCell>
        <mxCell id="T8E9cE-NdubUiAm9jBST-61" value="spikes.exciteXcorr" style="text;strokeColor=none;fillColor=none;align=left;verticalAlign=middle;spacingLeft=4;spacingRight=4;overflow=hidden;points=[[0,0.5],[1,0.5]];portConstraint=eastwest;rotatable=0;whiteSpace=wrap;html=1;" parent="T8E9cE-NdubUiAm9jBST-59" vertex="1">
          <mxGeometry y="90" width="146" height="30" as="geometry" />
        </mxCell>
        <mxCell id="T8E9cE-NdubUiAm9jBST-62" value="spikes.exciteWeight" style="text;strokeColor=none;fillColor=none;align=left;verticalAlign=middle;spacingLeft=4;spacingRight=4;overflow=hidden;points=[[0,0.5],[1,0.5]];portConstraint=eastwest;rotatable=0;whiteSpace=wrap;html=1;" parent="T8E9cE-NdubUiAm9jBST-59" vertex="1">
          <mxGeometry y="120" width="146" height="30" as="geometry" />
        </mxCell>
        <mxCell id="T8E9cE-NdubUiAm9jBST-63" value="plot_mono" style="swimlane;fontStyle=0;childLayout=stackLayout;horizontal=1;startSize=30;horizontalStack=0;resizeParent=1;resizeParentMax=0;resizeLast=0;collapsible=1;marginBottom=0;whiteSpace=wrap;html=1;" parent="WIyWlLk6GJQsqaUBKTNV-1" vertex="1">
          <mxGeometry x="66" y="828" width="146" height="120" as="geometry" />
        </mxCell>
        <mxCell id="T8E9cE-NdubUiAm9jBST-64" value="Item 1" style="text;strokeColor=none;fillColor=none;align=left;verticalAlign=middle;spacingLeft=4;spacingRight=4;overflow=hidden;points=[[0,0.5],[1,0.5]];portConstraint=eastwest;rotatable=0;whiteSpace=wrap;html=1;" parent="T8E9cE-NdubUiAm9jBST-63" vertex="1">
          <mxGeometry y="30" width="146" height="30" as="geometry" />
        </mxCell>
        <mxCell id="T8E9cE-NdubUiAm9jBST-65" value="Item 2" style="text;strokeColor=none;fillColor=none;align=left;verticalAlign=middle;spacingLeft=4;spacingRight=4;overflow=hidden;points=[[0,0.5],[1,0.5]];portConstraint=eastwest;rotatable=0;whiteSpace=wrap;html=1;" parent="T8E9cE-NdubUiAm9jBST-63" vertex="1">
          <mxGeometry y="60" width="146" height="30" as="geometry" />
        </mxCell>
        <mxCell id="T8E9cE-NdubUiAm9jBST-66" value="Item 3" style="text;strokeColor=none;fillColor=none;align=left;verticalAlign=middle;spacingLeft=4;spacingRight=4;overflow=hidden;points=[[0,0.5],[1,0.5]];portConstraint=eastwest;rotatable=0;whiteSpace=wrap;html=1;" parent="T8E9cE-NdubUiAm9jBST-63" vertex="1">
          <mxGeometry y="90" width="146" height="30" as="geometry" />
        </mxCell>
        <mxCell id="T8E9cE-NdubUiAm9jBST-68" value="filter_signal" style="swimlane;fontStyle=0;childLayout=stackLayout;horizontal=1;startSize=30;horizontalStack=0;resizeParent=1;resizeParentMax=0;resizeLast=0;collapsible=1;marginBottom=0;whiteSpace=wrap;html=1;" parent="WIyWlLk6GJQsqaUBKTNV-1" vertex="1">
          <mxGeometry x="476" y="828" width="146" height="120" as="geometry" />
        </mxCell>
        <mxCell id="T8E9cE-NdubUiAm9jBST-69" value="Item 1" style="text;strokeColor=none;fillColor=none;align=left;verticalAlign=middle;spacingLeft=4;spacingRight=4;overflow=hidden;points=[[0,0.5],[1,0.5]];portConstraint=eastwest;rotatable=0;whiteSpace=wrap;html=1;" parent="T8E9cE-NdubUiAm9jBST-68" vertex="1">
          <mxGeometry y="30" width="146" height="30" as="geometry" />
        </mxCell>
        <mxCell id="T8E9cE-NdubUiAm9jBST-70" value="Item 2" style="text;strokeColor=none;fillColor=none;align=left;verticalAlign=middle;spacingLeft=4;spacingRight=4;overflow=hidden;points=[[0,0.5],[1,0.5]];portConstraint=eastwest;rotatable=0;whiteSpace=wrap;html=1;" parent="T8E9cE-NdubUiAm9jBST-68" vertex="1">
          <mxGeometry y="60" width="146" height="30" as="geometry" />
        </mxCell>
        <mxCell id="T8E9cE-NdubUiAm9jBST-71" value="Item 3" style="text;strokeColor=none;fillColor=none;align=left;verticalAlign=middle;spacingLeft=4;spacingRight=4;overflow=hidden;points=[[0,0.5],[1,0.5]];portConstraint=eastwest;rotatable=0;whiteSpace=wrap;html=1;" parent="T8E9cE-NdubUiAm9jBST-68" vertex="1">
          <mxGeometry y="90" width="146" height="30" as="geometry" />
        </mxCell>
        <mxCell id="M7i_olt2I8dJTzz4kXaU-61" style="edgeStyle=none;curved=1;rounded=0;orthogonalLoop=1;jettySize=auto;html=1;fontSize=12;startSize=8;endSize=8;" edge="1" parent="WIyWlLk6GJQsqaUBKTNV-1" source="T8E9cE-NdubUiAm9jBST-72" target="T8E9cE-NdubUiAm9jBST-55">
          <mxGeometry relative="1" as="geometry" />
        </mxCell>
        <mxCell id="T8E9cE-NdubUiAm9jBST-72" value="xcorr" style="swimlane;fontStyle=0;childLayout=stackLayout;horizontal=1;startSize=30;horizontalStack=0;resizeParent=1;resizeParentMax=0;resizeLast=0;collapsible=1;marginBottom=0;whiteSpace=wrap;html=1;" parent="WIyWlLk6GJQsqaUBKTNV-1" vertex="1">
          <mxGeometry x="643" y="828" width="146" height="120" as="geometry" />
        </mxCell>
        <mxCell id="T8E9cE-NdubUiAm9jBST-73" value="Item 1" style="text;strokeColor=none;fillColor=none;align=left;verticalAlign=middle;spacingLeft=4;spacingRight=4;overflow=hidden;points=[[0,0.5],[1,0.5]];portConstraint=eastwest;rotatable=0;whiteSpace=wrap;html=1;" parent="T8E9cE-NdubUiAm9jBST-72" vertex="1">
          <mxGeometry y="30" width="146" height="30" as="geometry" />
        </mxCell>
        <mxCell id="T8E9cE-NdubUiAm9jBST-74" value="Item 2" style="text;strokeColor=none;fillColor=none;align=left;verticalAlign=middle;spacingLeft=4;spacingRight=4;overflow=hidden;points=[[0,0.5],[1,0.5]];portConstraint=eastwest;rotatable=0;whiteSpace=wrap;html=1;" parent="T8E9cE-NdubUiAm9jBST-72" vertex="1">
          <mxGeometry y="60" width="146" height="30" as="geometry" />
        </mxCell>
        <mxCell id="T8E9cE-NdubUiAm9jBST-75" value="Item 3" style="text;strokeColor=none;fillColor=none;align=left;verticalAlign=middle;spacingLeft=4;spacingRight=4;overflow=hidden;points=[[0,0.5],[1,0.5]];portConstraint=eastwest;rotatable=0;whiteSpace=wrap;html=1;" parent="T8E9cE-NdubUiAm9jBST-72" vertex="1">
          <mxGeometry y="90" width="146" height="30" as="geometry" />
        </mxCell>
        <mxCell id="T8E9cE-NdubUiAm9jBST-76" value="cwt_power" style="swimlane;fontStyle=0;childLayout=stackLayout;horizontal=1;startSize=30;horizontalStack=0;resizeParent=1;resizeParentMax=0;resizeLast=0;collapsible=1;marginBottom=0;whiteSpace=wrap;html=1;" parent="WIyWlLk6GJQsqaUBKTNV-1" vertex="1">
          <mxGeometry x="982" y="828" width="146" height="120" as="geometry" />
        </mxCell>
        <mxCell id="T8E9cE-NdubUiAm9jBST-77" value="Item 1" style="text;strokeColor=none;fillColor=none;align=left;verticalAlign=middle;spacingLeft=4;spacingRight=4;overflow=hidden;points=[[0,0.5],[1,0.5]];portConstraint=eastwest;rotatable=0;whiteSpace=wrap;html=1;" parent="T8E9cE-NdubUiAm9jBST-76" vertex="1">
          <mxGeometry y="30" width="146" height="30" as="geometry" />
        </mxCell>
        <mxCell id="T8E9cE-NdubUiAm9jBST-78" value="Item 2" style="text;strokeColor=none;fillColor=none;align=left;verticalAlign=middle;spacingLeft=4;spacingRight=4;overflow=hidden;points=[[0,0.5],[1,0.5]];portConstraint=eastwest;rotatable=0;whiteSpace=wrap;html=1;" parent="T8E9cE-NdubUiAm9jBST-76" vertex="1">
          <mxGeometry y="60" width="146" height="30" as="geometry" />
        </mxCell>
        <mxCell id="T8E9cE-NdubUiAm9jBST-79" value="Item 3" style="text;strokeColor=none;fillColor=none;align=left;verticalAlign=middle;spacingLeft=4;spacingRight=4;overflow=hidden;points=[[0,0.5],[1,0.5]];portConstraint=eastwest;rotatable=0;whiteSpace=wrap;html=1;" parent="T8E9cE-NdubUiAm9jBST-76" vertex="1">
          <mxGeometry y="90" width="146" height="30" as="geometry" />
        </mxCell>
        <mxCell id="T8E9cE-NdubUiAm9jBST-80" value="ppc" style="swimlane;fontStyle=0;childLayout=stackLayout;horizontal=1;startSize=30;horizontalStack=0;resizeParent=1;resizeParentMax=0;resizeLast=0;collapsible=1;marginBottom=0;whiteSpace=wrap;html=1;" parent="WIyWlLk6GJQsqaUBKTNV-1" vertex="1">
          <mxGeometry x="1150" y="828" width="146" height="120" as="geometry" />
        </mxCell>
        <mxCell id="T8E9cE-NdubUiAm9jBST-81" value="Item 1" style="text;strokeColor=none;fillColor=none;align=left;verticalAlign=middle;spacingLeft=4;spacingRight=4;overflow=hidden;points=[[0,0.5],[1,0.5]];portConstraint=eastwest;rotatable=0;whiteSpace=wrap;html=1;" parent="T8E9cE-NdubUiAm9jBST-80" vertex="1">
          <mxGeometry y="30" width="146" height="30" as="geometry" />
        </mxCell>
        <mxCell id="T8E9cE-NdubUiAm9jBST-82" value="Item 2" style="text;strokeColor=none;fillColor=none;align=left;verticalAlign=middle;spacingLeft=4;spacingRight=4;overflow=hidden;points=[[0,0.5],[1,0.5]];portConstraint=eastwest;rotatable=0;whiteSpace=wrap;html=1;" parent="T8E9cE-NdubUiAm9jBST-80" vertex="1">
          <mxGeometry y="60" width="146" height="30" as="geometry" />
        </mxCell>
        <mxCell id="T8E9cE-NdubUiAm9jBST-83" value="Item 3" style="text;strokeColor=none;fillColor=none;align=left;verticalAlign=middle;spacingLeft=4;spacingRight=4;overflow=hidden;points=[[0,0.5],[1,0.5]];portConstraint=eastwest;rotatable=0;whiteSpace=wrap;html=1;" parent="T8E9cE-NdubUiAm9jBST-80" vertex="1">
          <mxGeometry y="90" width="146" height="30" as="geometry" />
        </mxCell>
        <mxCell id="T8E9cE-NdubUiAm9jBST-84" value="plot_digraph" style="swimlane;fontStyle=0;childLayout=stackLayout;horizontal=1;startSize=30;horizontalStack=0;resizeParent=1;resizeParentMax=0;resizeLast=0;collapsible=1;marginBottom=0;whiteSpace=wrap;html=1;" parent="WIyWlLk6GJQsqaUBKTNV-1" vertex="1">
          <mxGeometry x="180" y="1020" width="146" height="120" as="geometry" />
        </mxCell>
        <mxCell id="T8E9cE-NdubUiAm9jBST-85" value="Item 1" style="text;strokeColor=none;fillColor=none;align=left;verticalAlign=middle;spacingLeft=4;spacingRight=4;overflow=hidden;points=[[0,0.5],[1,0.5]];portConstraint=eastwest;rotatable=0;whiteSpace=wrap;html=1;" parent="T8E9cE-NdubUiAm9jBST-84" vertex="1">
          <mxGeometry y="30" width="146" height="30" as="geometry" />
        </mxCell>
        <mxCell id="T8E9cE-NdubUiAm9jBST-86" value="Item 2" style="text;strokeColor=none;fillColor=none;align=left;verticalAlign=middle;spacingLeft=4;spacingRight=4;overflow=hidden;points=[[0,0.5],[1,0.5]];portConstraint=eastwest;rotatable=0;whiteSpace=wrap;html=1;" parent="T8E9cE-NdubUiAm9jBST-84" vertex="1">
          <mxGeometry y="60" width="146" height="30" as="geometry" />
        </mxCell>
        <mxCell id="T8E9cE-NdubUiAm9jBST-87" value="Item 3" style="text;strokeColor=none;fillColor=none;align=left;verticalAlign=middle;spacingLeft=4;spacingRight=4;overflow=hidden;points=[[0,0.5],[1,0.5]];portConstraint=eastwest;rotatable=0;whiteSpace=wrap;html=1;" parent="T8E9cE-NdubUiAm9jBST-84" vertex="1">
          <mxGeometry y="90" width="146" height="30" as="geometry" />
        </mxCell>
        <mxCell id="T8E9cE-NdubUiAm9jBST-88" value="find_state_frames" style="swimlane;fontStyle=0;childLayout=stackLayout;horizontal=1;startSize=30;horizontalStack=0;resizeParent=1;resizeParentMax=0;resizeLast=0;collapsible=1;marginBottom=0;whiteSpace=wrap;html=1;" parent="WIyWlLk6GJQsqaUBKTNV-1" vertex="1">
          <mxGeometry x="399" y="510" width="146" height="120" as="geometry" />
        </mxCell>
        <mxCell id="T8E9cE-NdubUiAm9jBST-89" value="Item 1" style="text;strokeColor=none;fillColor=none;align=left;verticalAlign=middle;spacingLeft=4;spacingRight=4;overflow=hidden;points=[[0,0.5],[1,0.5]];portConstraint=eastwest;rotatable=0;whiteSpace=wrap;html=1;" parent="T8E9cE-NdubUiAm9jBST-88" vertex="1">
          <mxGeometry y="30" width="146" height="30" as="geometry" />
        </mxCell>
        <mxCell id="T8E9cE-NdubUiAm9jBST-90" value="Item 2" style="text;strokeColor=none;fillColor=none;align=left;verticalAlign=middle;spacingLeft=4;spacingRight=4;overflow=hidden;points=[[0,0.5],[1,0.5]];portConstraint=eastwest;rotatable=0;whiteSpace=wrap;html=1;" parent="T8E9cE-NdubUiAm9jBST-88" vertex="1">
          <mxGeometry y="60" width="146" height="30" as="geometry" />
        </mxCell>
        <mxCell id="T8E9cE-NdubUiAm9jBST-91" value="Item 3" style="text;strokeColor=none;fillColor=none;align=left;verticalAlign=middle;spacingLeft=4;spacingRight=4;overflow=hidden;points=[[0,0.5],[1,0.5]];portConstraint=eastwest;rotatable=0;whiteSpace=wrap;html=1;" parent="T8E9cE-NdubUiAm9jBST-88" vertex="1">
          <mxGeometry y="90" width="146" height="30" as="geometry" />
        </mxCell>
        <mxCell id="T8E9cE-NdubUiAm9jBST-92" value="trialize_rotation" style="swimlane;fontStyle=0;childLayout=stackLayout;horizontal=1;startSize=30;horizontalStack=0;resizeParent=1;resizeParentMax=0;resizeLast=0;collapsible=1;marginBottom=0;whiteSpace=wrap;html=1;" parent="WIyWlLk6GJQsqaUBKTNV-1" vertex="1">
          <mxGeometry x="235" y="510" width="146" height="120" as="geometry" />
        </mxCell>
        <mxCell id="T8E9cE-NdubUiAm9jBST-93" value="Item 1" style="text;strokeColor=none;fillColor=none;align=left;verticalAlign=middle;spacingLeft=4;spacingRight=4;overflow=hidden;points=[[0,0.5],[1,0.5]];portConstraint=eastwest;rotatable=0;whiteSpace=wrap;html=1;" parent="T8E9cE-NdubUiAm9jBST-92" vertex="1">
          <mxGeometry y="30" width="146" height="30" as="geometry" />
        </mxCell>
        <mxCell id="T8E9cE-NdubUiAm9jBST-94" value="Item 2" style="text;strokeColor=none;fillColor=none;align=left;verticalAlign=middle;spacingLeft=4;spacingRight=4;overflow=hidden;points=[[0,0.5],[1,0.5]];portConstraint=eastwest;rotatable=0;whiteSpace=wrap;html=1;" parent="T8E9cE-NdubUiAm9jBST-92" vertex="1">
          <mxGeometry y="60" width="146" height="30" as="geometry" />
        </mxCell>
        <mxCell id="T8E9cE-NdubUiAm9jBST-95" value="Item 3" style="text;strokeColor=none;fillColor=none;align=left;verticalAlign=middle;spacingLeft=4;spacingRight=4;overflow=hidden;points=[[0,0.5],[1,0.5]];portConstraint=eastwest;rotatable=0;whiteSpace=wrap;html=1;" parent="T8E9cE-NdubUiAm9jBST-92" vertex="1">
          <mxGeometry y="90" width="146" height="30" as="geometry" />
        </mxCell>
        <mxCell id="SHkvdKnQyJB9asYvrBUC-0" style="edgeStyle=orthogonalEdgeStyle;rounded=0;orthogonalLoop=1;jettySize=auto;html=1;entryX=0.5;entryY=0;entryDx=0;entryDy=0;curved=1;" parent="WIyWlLk6GJQsqaUBKTNV-1" source="T8E9cE-NdubUiAm9jBST-3" target="M7i_olt2I8dJTzz4kXaU-18" edge="1">
          <mxGeometry relative="1" as="geometry">
            <mxPoint x="1526.9999999999995" y="195" as="targetPoint" />
            <Array as="points">
              <mxPoint x="1020" y="285" />
              <mxPoint x="1020" y="50" />
              <mxPoint x="1390" y="50" />
            </Array>
          </mxGeometry>
        </mxCell>
        <mxCell id="SHkvdKnQyJB9asYvrBUC-1" style="edgeStyle=orthogonalEdgeStyle;rounded=0;orthogonalLoop=1;jettySize=auto;html=1;entryX=0.5;entryY=0;entryDx=0;entryDy=0;curved=1;" parent="WIyWlLk6GJQsqaUBKTNV-1" source="T8E9cE-NdubUiAm9jBST-4" target="T8E9cE-NdubUiAm9jBST-22" edge="1">
          <mxGeometry relative="1" as="geometry">
            <Array as="points">
              <mxPoint x="1050" y="315" />
              <mxPoint x="1050" y="100" />
              <mxPoint x="1180" y="100" />
            </Array>
          </mxGeometry>
        </mxCell>
        <mxCell id="SHkvdKnQyJB9asYvrBUC-2" value="config.ini" style="swimlane;fontStyle=0;childLayout=stackLayout;horizontal=1;startSize=30;horizontalStack=0;resizeParent=1;resizeParentMax=0;resizeLast=0;collapsible=1;marginBottom=0;whiteSpace=wrap;html=1;" parent="WIyWlLk6GJQsqaUBKTNV-1" vertex="1">
          <mxGeometry x="590" y="40" width="140" height="180" as="geometry" />
        </mxCell>
        <mxCell id="SHkvdKnQyJB9asYvrBUC-3" value="info" style="text;strokeColor=none;fillColor=none;align=left;verticalAlign=middle;spacingLeft=4;spacingRight=4;overflow=hidden;points=[[0,0.5],[1,0.5]];portConstraint=eastwest;rotatable=0;whiteSpace=wrap;html=1;" parent="SHkvdKnQyJB9asYvrBUC-2" vertex="1">
          <mxGeometry y="30" width="140" height="30" as="geometry" />
        </mxCell>
        <mxCell id="SHkvdKnQyJB9asYvrBUC-6" value="trialTypes" style="text;strokeColor=none;fillColor=none;align=left;verticalAlign=middle;spacingLeft=4;spacingRight=4;overflow=hidden;points=[[0,0.5],[1,0.5]];portConstraint=eastwest;rotatable=0;whiteSpace=wrap;html=1;" parent="SHkvdKnQyJB9asYvrBUC-2" vertex="1">
          <mxGeometry y="60" width="140" height="30" as="geometry" />
        </mxCell>
        <mxCell id="SHkvdKnQyJB9asYvrBUC-7" value="outcomes" style="text;strokeColor=none;fillColor=none;align=left;verticalAlign=middle;spacingLeft=4;spacingRight=4;overflow=hidden;points=[[0,0.5],[1,0.5]];portConstraint=eastwest;rotatable=0;whiteSpace=wrap;html=1;" parent="SHkvdKnQyJB9asYvrBUC-2" vertex="1">
          <mxGeometry y="90" width="140" height="30" as="geometry" />
        </mxCell>
        <mxCell id="SHkvdKnQyJB9asYvrBUC-5" value="regions" style="text;strokeColor=none;fillColor=none;align=left;verticalAlign=middle;spacingLeft=4;spacingRight=4;overflow=hidden;points=[[0,0.5],[1,0.5]];portConstraint=eastwest;rotatable=0;whiteSpace=wrap;html=1;" parent="SHkvdKnQyJB9asYvrBUC-2" vertex="1">
          <mxGeometry y="120" width="140" height="30" as="geometry" />
        </mxCell>
        <mxCell id="SHkvdKnQyJB9asYvrBUC-4" value="timestamps" style="text;strokeColor=none;fillColor=none;align=left;verticalAlign=middle;spacingLeft=4;spacingRight=4;overflow=hidden;points=[[0,0.5],[1,0.5]];portConstraint=eastwest;rotatable=0;whiteSpace=wrap;html=1;" parent="SHkvdKnQyJB9asYvrBUC-2" vertex="1">
          <mxGeometry y="150" width="140" height="30" as="geometry" />
        </mxCell>
        <mxCell id="SHkvdKnQyJB9asYvrBUC-12" value="Experiment Directory" style="swimlane;fontStyle=0;childLayout=stackLayout;horizontal=1;startSize=30;horizontalStack=0;resizeParent=1;resizeParentMax=0;resizeLast=0;collapsible=1;marginBottom=0;whiteSpace=wrap;html=1;" parent="WIyWlLk6GJQsqaUBKTNV-1" vertex="1">
          <mxGeometry x="66" y="80" width="140" height="150" as="geometry" />
        </mxCell>
        <mxCell id="SHkvdKnQyJB9asYvrBUC-16" value="config.ini" style="text;strokeColor=none;fillColor=none;align=left;verticalAlign=middle;spacingLeft=4;spacingRight=4;overflow=hidden;points=[[0,0.5],[1,0.5]];portConstraint=eastwest;rotatable=0;whiteSpace=wrap;html=1;" parent="SHkvdKnQyJB9asYvrBUC-12" vertex="1">
          <mxGeometry y="30" width="140" height="30" as="geometry" />
        </mxCell>
        <mxCell id="SHkvdKnQyJB9asYvrBUC-13" value="Subject 1" style="text;strokeColor=none;fillColor=none;align=left;verticalAlign=middle;spacingLeft=4;spacingRight=4;overflow=hidden;points=[[0,0.5],[1,0.5]];portConstraint=eastwest;rotatable=0;whiteSpace=wrap;html=1;" parent="SHkvdKnQyJB9asYvrBUC-12" vertex="1">
          <mxGeometry y="60" width="140" height="30" as="geometry" />
        </mxCell>
        <mxCell id="SHkvdKnQyJB9asYvrBUC-14" value="&amp;nbsp; &amp;nbsp; &amp;nbsp; ..." style="text;strokeColor=none;fillColor=none;align=left;verticalAlign=middle;spacingLeft=4;spacingRight=4;overflow=hidden;points=[[0,0.5],[1,0.5]];portConstraint=eastwest;rotatable=0;whiteSpace=wrap;html=1;" parent="SHkvdKnQyJB9asYvrBUC-12" vertex="1">
          <mxGeometry y="90" width="140" height="30" as="geometry" />
        </mxCell>
        <mxCell id="SHkvdKnQyJB9asYvrBUC-15" value="Subject n" style="text;strokeColor=none;fillColor=none;align=left;verticalAlign=middle;spacingLeft=4;spacingRight=4;overflow=hidden;points=[[0,0.5],[1,0.5]];portConstraint=eastwest;rotatable=0;whiteSpace=wrap;html=1;" parent="SHkvdKnQyJB9asYvrBUC-12" vertex="1">
          <mxGeometry y="120" width="140" height="30" as="geometry" />
        </mxCell>
        <mxCell id="SHkvdKnQyJB9asYvrBUC-19" value="Session Directory" style="swimlane;fontStyle=0;childLayout=stackLayout;horizontal=1;startSize=30;horizontalStack=0;resizeParent=1;resizeParentMax=0;resizeLast=0;collapsible=1;marginBottom=0;whiteSpace=wrap;html=1;" parent="WIyWlLk6GJQsqaUBKTNV-1" vertex="1">
          <mxGeometry x="326" y="210" width="140" height="150" as="geometry" />
        </mxCell>
        <mxCell id="SHkvdKnQyJB9asYvrBUC-20" value=".ns6" style="text;strokeColor=none;fillColor=none;align=left;verticalAlign=middle;spacingLeft=4;spacingRight=4;overflow=hidden;points=[[0,0.5],[1,0.5]];portConstraint=eastwest;rotatable=0;whiteSpace=wrap;html=1;" parent="SHkvdKnQyJB9asYvrBUC-19" vertex="1">
          <mxGeometry y="30" width="140" height="30" as="geometry" />
        </mxCell>
        <mxCell id="SHkvdKnQyJB9asYvrBUC-21" value=".nev" style="text;strokeColor=none;fillColor=none;align=left;verticalAlign=middle;spacingLeft=4;spacingRight=4;overflow=hidden;points=[[0,0.5],[1,0.5]];portConstraint=eastwest;rotatable=0;whiteSpace=wrap;html=1;" parent="SHkvdKnQyJB9asYvrBUC-19" vertex="1">
          <mxGeometry y="60" width="140" height="30" as="geometry" />
        </mxCell>
        <mxCell id="SHkvdKnQyJB9asYvrBUC-22" value="SessionData.mat" style="text;strokeColor=none;fillColor=none;align=left;verticalAlign=middle;spacingLeft=4;spacingRight=4;overflow=hidden;points=[[0,0.5],[1,0.5]];portConstraint=eastwest;rotatable=0;whiteSpace=wrap;html=1;" parent="SHkvdKnQyJB9asYvrBUC-19" vertex="1">
          <mxGeometry y="90" width="140" height="30" as="geometry" />
        </mxCell>
        <mxCell id="SHkvdKnQyJB9asYvrBUC-23" value="movementData.csv" style="text;strokeColor=none;fillColor=none;align=left;verticalAlign=middle;spacingLeft=4;spacingRight=4;overflow=hidden;points=[[0,0.5],[1,0.5]];portConstraint=eastwest;rotatable=0;whiteSpace=wrap;html=1;" parent="SHkvdKnQyJB9asYvrBUC-19" vertex="1">
          <mxGeometry y="120" width="140" height="30" as="geometry" />
        </mxCell>
        <mxCell id="SHkvdKnQyJB9asYvrBUC-25" style="edgeStyle=orthogonalEdgeStyle;rounded=0;orthogonalLoop=1;jettySize=auto;html=1;" parent="WIyWlLk6GJQsqaUBKTNV-1" source="SHkvdKnQyJB9asYvrBUC-24" target="SHkvdKnQyJB9asYvrBUC-23" edge="1">
          <mxGeometry relative="1" as="geometry" />
        </mxCell>
        <mxCell id="SHkvdKnQyJB9asYvrBUC-24" value="DeepLabCut" style="rounded=0;whiteSpace=wrap;html=1;" parent="WIyWlLk6GJQsqaUBKTNV-1" vertex="1">
          <mxGeometry x="76" y="315" width="120" height="60" as="geometry" />
        </mxCell>
        <mxCell id="SHkvdKnQyJB9asYvrBUC-27" style="edgeStyle=orthogonalEdgeStyle;rounded=0;orthogonalLoop=1;jettySize=auto;html=1;entryX=0.5;entryY=0;entryDx=0;entryDy=0;curved=1;" parent="WIyWlLk6GJQsqaUBKTNV-1" source="SHkvdKnQyJB9asYvrBUC-13" target="SHkvdKnQyJB9asYvrBUC-19" edge="1">
          <mxGeometry relative="1" as="geometry" />
        </mxCell>
        <mxCell id="SHkvdKnQyJB9asYvrBUC-32" style="edgeStyle=orthogonalEdgeStyle;rounded=0;orthogonalLoop=1;jettySize=auto;html=1;entryX=0;entryY=0.5;entryDx=0;entryDy=0;" parent="WIyWlLk6GJQsqaUBKTNV-1" source="SHkvdKnQyJB9asYvrBUC-22" target="T8E9cE-NdubUiAm9jBST-4" edge="1">
          <mxGeometry relative="1" as="geometry">
            <Array as="points">
              <mxPoint x="610" y="315" />
              <mxPoint x="610" y="315" />
            </Array>
          </mxGeometry>
        </mxCell>
        <mxCell id="SHkvdKnQyJB9asYvrBUC-33" style="edgeStyle=orthogonalEdgeStyle;rounded=0;orthogonalLoop=1;jettySize=auto;html=1;exitX=1;exitY=0.5;exitDx=0;exitDy=0;entryX=0;entryY=0.5;entryDx=0;entryDy=0;strokeColor=#000000;" parent="WIyWlLk6GJQsqaUBKTNV-1" source="SHkvdKnQyJB9asYvrBUC-21" target="T8E9cE-NdubUiAm9jBST-3" edge="1">
          <mxGeometry relative="1" as="geometry">
            <Array as="points">
              <mxPoint x="610" y="285" />
              <mxPoint x="610" y="285" />
            </Array>
          </mxGeometry>
        </mxCell>
        <mxCell id="SHkvdKnQyJB9asYvrBUC-34" style="edgeStyle=orthogonalEdgeStyle;rounded=0;orthogonalLoop=1;jettySize=auto;html=1;strokeColor=#000000;" parent="WIyWlLk6GJQsqaUBKTNV-1" source="SHkvdKnQyJB9asYvrBUC-20" target="T8E9cE-NdubUiAm9jBST-2" edge="1">
          <mxGeometry relative="1" as="geometry" />
        </mxCell>
        <mxCell id="SHkvdKnQyJB9asYvrBUC-39" style="edgeStyle=orthogonalEdgeStyle;rounded=0;orthogonalLoop=1;jettySize=auto;html=1;entryX=0;entryY=0.5;entryDx=0;entryDy=0;strokeColor=#000000;" parent="WIyWlLk6GJQsqaUBKTNV-1" source="SHkvdKnQyJB9asYvrBUC-23" target="T8E9cE-NdubUiAm9jBST-5" edge="1">
          <mxGeometry relative="1" as="geometry">
            <Array as="points">
              <mxPoint x="600" y="345" />
              <mxPoint x="600" y="345" />
            </Array>
          </mxGeometry>
        </mxCell>
        <mxCell id="SHkvdKnQyJB9asYvrBUC-41" style="edgeStyle=orthogonalEdgeStyle;rounded=0;orthogonalLoop=1;jettySize=auto;html=1;entryX=0;entryY=0.5;entryDx=0;entryDy=0;curved=1;strokeColor=#000000;" parent="WIyWlLk6GJQsqaUBKTNV-1" source="SHkvdKnQyJB9asYvrBUC-21" target="T8E9cE-NdubUiAm9jBST-2" edge="1">
          <mxGeometry relative="1" as="geometry">
            <mxPoint x="740" y="270" as="targetPoint" />
            <Array as="points">
              <mxPoint x="660" y="285" />
              <mxPoint x="660" y="255" />
            </Array>
          </mxGeometry>
        </mxCell>
        <mxCell id="SHkvdKnQyJB9asYvrBUC-45" style="edgeStyle=orthogonalEdgeStyle;rounded=0;orthogonalLoop=1;jettySize=auto;html=1;entryX=0;entryY=0.5;entryDx=0;entryDy=0;curved=1;exitX=1;exitY=0.5;exitDx=0;exitDy=0;strokeColor=#000000;" parent="WIyWlLk6GJQsqaUBKTNV-1" source="SHkvdKnQyJB9asYvrBUC-3" target="T8E9cE-NdubUiAm9jBST-1" edge="1">
          <mxGeometry relative="1" as="geometry">
            <Array as="points">
              <mxPoint x="780" y="85" />
              <mxPoint x="780" y="225" />
            </Array>
          </mxGeometry>
        </mxCell>
        <mxCell id="SHkvdKnQyJB9asYvrBUC-46" style="edgeStyle=orthogonalEdgeStyle;rounded=0;orthogonalLoop=1;jettySize=auto;html=1;exitX=1;exitY=0.5;exitDx=0;exitDy=0;curved=1;strokeColor=#000000;" parent="WIyWlLk6GJQsqaUBKTNV-1" edge="1">
          <mxGeometry relative="1" as="geometry">
            <mxPoint x="730" y="115" as="sourcePoint" />
            <mxPoint x="816" y="225" as="targetPoint" />
            <Array as="points">
              <mxPoint x="770" y="115" />
              <mxPoint x="770" y="225" />
            </Array>
          </mxGeometry>
        </mxCell>
        <mxCell id="SHkvdKnQyJB9asYvrBUC-47" style="edgeStyle=orthogonalEdgeStyle;rounded=0;orthogonalLoop=1;jettySize=auto;html=1;exitX=1;exitY=0.5;exitDx=0;exitDy=0;curved=1;strokeColor=#000000;" parent="WIyWlLk6GJQsqaUBKTNV-1" source="SHkvdKnQyJB9asYvrBUC-7" target="T8E9cE-NdubUiAm9jBST-1" edge="1">
          <mxGeometry relative="1" as="geometry">
            <Array as="points">
              <mxPoint x="760" y="145" />
              <mxPoint x="760" y="225" />
            </Array>
          </mxGeometry>
        </mxCell>
        <mxCell id="SHkvdKnQyJB9asYvrBUC-48" style="edgeStyle=orthogonalEdgeStyle;rounded=0;orthogonalLoop=1;jettySize=auto;html=1;curved=1;strokeColor=#000000;" parent="WIyWlLk6GJQsqaUBKTNV-1" source="SHkvdKnQyJB9asYvrBUC-5" target="T8E9cE-NdubUiAm9jBST-2" edge="1">
          <mxGeometry relative="1" as="geometry">
            <Array as="points">
              <mxPoint x="750" y="175" />
              <mxPoint x="750" y="255" />
            </Array>
          </mxGeometry>
        </mxCell>
        <mxCell id="SHkvdKnQyJB9asYvrBUC-49" style="edgeStyle=orthogonalEdgeStyle;rounded=0;orthogonalLoop=1;jettySize=auto;html=1;entryX=0;entryY=0.5;entryDx=0;entryDy=0;curved=1;strokeColor=#000000;" parent="WIyWlLk6GJQsqaUBKTNV-1" source="SHkvdKnQyJB9asYvrBUC-4" target="T8E9cE-NdubUiAm9jBST-3" edge="1">
          <mxGeometry relative="1" as="geometry">
            <Array as="points">
              <mxPoint x="740" y="205" />
              <mxPoint x="740" y="285" />
            </Array>
          </mxGeometry>
        </mxCell>
        <mxCell id="SHkvdKnQyJB9asYvrBUC-60" style="edgeStyle=orthogonalEdgeStyle;rounded=0;orthogonalLoop=1;jettySize=auto;html=1;entryX=0.5;entryY=0;entryDx=0;entryDy=0;curved=1;" parent="WIyWlLk6GJQsqaUBKTNV-1" source="SHkvdKnQyJB9asYvrBUC-16" target="SHkvdKnQyJB9asYvrBUC-2" edge="1">
          <mxGeometry relative="1" as="geometry" />
        </mxCell>
        <mxCell id="M7i_olt2I8dJTzz4kXaU-1" value="ExpManager" style="swimlane;fontStyle=0;childLayout=stackLayout;horizontal=1;startSize=30;horizontalStack=0;resizeParent=1;resizeParentMax=0;resizeLast=0;collapsible=1;marginBottom=0;whiteSpace=wrap;html=1;" vertex="1" parent="WIyWlLk6GJQsqaUBKTNV-1">
          <mxGeometry x="930" y="-220" width="140" height="90" as="geometry" />
        </mxCell>
        <mxCell id="M7i_olt2I8dJTzz4kXaU-3" value="metadata" style="text;strokeColor=none;fillColor=none;align=left;verticalAlign=middle;spacingLeft=4;spacingRight=4;overflow=hidden;points=[[0,0.5],[1,0.5]];portConstraint=eastwest;rotatable=0;whiteSpace=wrap;html=1;" vertex="1" parent="M7i_olt2I8dJTzz4kXaU-1">
          <mxGeometry y="30" width="140" height="30" as="geometry" />
        </mxCell>
        <mxCell id="M7i_olt2I8dJTzz4kXaU-2" value="sessions" style="text;strokeColor=none;fillColor=none;align=left;verticalAlign=middle;spacingLeft=4;spacingRight=4;overflow=hidden;points=[[0,0.5],[1,0.5]];portConstraint=eastwest;rotatable=0;whiteSpace=wrap;html=1;" vertex="1" parent="M7i_olt2I8dJTzz4kXaU-1">
          <mxGeometry y="60" width="140" height="30" as="geometry" />
        </mxCell>
        <mxCell id="M7i_olt2I8dJTzz4kXaU-8" style="edgeStyle=orthogonalEdgeStyle;curved=1;rounded=0;orthogonalLoop=1;jettySize=auto;html=1;fontSize=12;startSize=8;endSize=8;" edge="1" parent="WIyWlLk6GJQsqaUBKTNV-1" source="M7i_olt2I8dJTzz4kXaU-2" target="T8E9cE-NdubUiAm9jBST-0">
          <mxGeometry relative="1" as="geometry" />
        </mxCell>
        <mxCell id="M7i_olt2I8dJTzz4kXaU-10" value="array functions" style="swimlane;fontStyle=0;childLayout=stackLayout;horizontal=1;startSize=30;horizontalStack=0;resizeParent=1;resizeParentMax=0;resizeLast=0;collapsible=1;marginBottom=0;whiteSpace=wrap;html=1;fontSize=16;" vertex="1" parent="WIyWlLk6GJQsqaUBKTNV-1">
          <mxGeometry x="521" y="-250" width="194" height="150" as="geometry" />
        </mxCell>
        <mxCell id="M7i_olt2I8dJTzz4kXaU-11" value="select subjects" style="text;strokeColor=none;fillColor=none;align=left;verticalAlign=middle;spacingLeft=4;spacingRight=4;overflow=hidden;points=[[0,0.5],[1,0.5]];portConstraint=eastwest;rotatable=0;whiteSpace=wrap;html=1;fontSize=16;" vertex="1" parent="M7i_olt2I8dJTzz4kXaU-10">
          <mxGeometry y="30" width="194" height="30" as="geometry" />
        </mxCell>
        <mxCell id="M7i_olt2I8dJTzz4kXaU-12" value="select keywords" style="text;strokeColor=none;fillColor=none;align=left;verticalAlign=middle;spacingLeft=4;spacingRight=4;overflow=hidden;points=[[0,0.5],[1,0.5]];portConstraint=eastwest;rotatable=0;whiteSpace=wrap;html=1;fontSize=16;" vertex="1" parent="M7i_olt2I8dJTzz4kXaU-10">
          <mxGeometry y="60" width="194" height="30" as="geometry" />
        </mxCell>
        <mxCell id="M7i_olt2I8dJTzz4kXaU-13" value="analyses by neuron" style="text;strokeColor=none;fillColor=none;align=left;verticalAlign=middle;spacingLeft=4;spacingRight=4;overflow=hidden;points=[[0,0.5],[1,0.5]];portConstraint=eastwest;rotatable=0;whiteSpace=wrap;html=1;fontSize=16;" vertex="1" parent="M7i_olt2I8dJTzz4kXaU-10">
          <mxGeometry y="90" width="194" height="30" as="geometry" />
        </mxCell>
        <mxCell id="M7i_olt2I8dJTzz4kXaU-14" value="analyses by session" style="text;strokeColor=none;fillColor=none;align=left;verticalAlign=middle;spacingLeft=4;spacingRight=4;overflow=hidden;points=[[0,0.5],[1,0.5]];portConstraint=eastwest;rotatable=0;whiteSpace=wrap;html=1;fontSize=16;" vertex="1" parent="M7i_olt2I8dJTzz4kXaU-10">
          <mxGeometry y="120" width="194" height="30" as="geometry" />
        </mxCell>
        <mxCell id="M7i_olt2I8dJTzz4kXaU-15" style="edgeStyle=none;curved=1;rounded=0;orthogonalLoop=1;jettySize=auto;html=1;exitX=0;exitY=0.5;exitDx=0;exitDy=0;entryX=1;entryY=0.5;entryDx=0;entryDy=0;fontSize=12;startSize=8;endSize=8;" edge="1" parent="WIyWlLk6GJQsqaUBKTNV-1" source="M7i_olt2I8dJTzz4kXaU-3" target="M7i_olt2I8dJTzz4kXaU-10">
          <mxGeometry relative="1" as="geometry" />
        </mxCell>
        <mxCell id="M7i_olt2I8dJTzz4kXaU-32" style="edgeStyle=orthogonalEdgeStyle;curved=1;rounded=0;orthogonalLoop=1;jettySize=auto;html=1;entryX=0.5;entryY=0;entryDx=0;entryDy=0;fontSize=12;startSize=8;endSize=8;" edge="1" parent="WIyWlLk6GJQsqaUBKTNV-1" source="M7i_olt2I8dJTzz4kXaU-18" target="M7i_olt2I8dJTzz4kXaU-30">
          <mxGeometry relative="1" as="geometry" />
        </mxCell>
        <mxCell id="M7i_olt2I8dJTzz4kXaU-18" value="find_event" style="swimlane;fontStyle=0;childLayout=stackLayout;horizontal=1;startSize=30;horizontalStack=0;resizeParent=1;resizeParentMax=0;resizeLast=0;collapsible=1;marginBottom=0;whiteSpace=wrap;html=1;" vertex="1" parent="WIyWlLk6GJQsqaUBKTNV-1">
          <mxGeometry x="1317" y="169" width="146" height="180" as="geometry" />
        </mxCell>
        <mxCell id="M7i_olt2I8dJTzz4kXaU-19" value="event - required param" style="text;strokeColor=none;fillColor=none;align=left;verticalAlign=middle;spacingLeft=4;spacingRight=4;overflow=hidden;points=[[0,0.5],[1,0.5]];portConstraint=eastwest;rotatable=0;whiteSpace=wrap;html=1;" vertex="1" parent="M7i_olt2I8dJTzz4kXaU-18">
          <mxGeometry y="30" width="146" height="30" as="geometry" />
        </mxCell>
        <mxCell id="M7i_olt2I8dJTzz4kXaU-20" value="trialType" style="text;strokeColor=none;fillColor=none;align=left;verticalAlign=middle;spacingLeft=4;spacingRight=4;overflow=hidden;points=[[0,0.5],[1,0.5]];portConstraint=eastwest;rotatable=0;whiteSpace=wrap;html=1;" vertex="1" parent="M7i_olt2I8dJTzz4kXaU-18">
          <mxGeometry y="60" width="146" height="30" as="geometry" />
        </mxCell>
        <mxCell id="M7i_olt2I8dJTzz4kXaU-21" value="outcome" style="text;strokeColor=none;fillColor=none;align=left;verticalAlign=middle;spacingLeft=4;spacingRight=4;overflow=hidden;points=[[0,0.5],[1,0.5]];portConstraint=eastwest;rotatable=0;whiteSpace=wrap;html=1;" vertex="1" parent="M7i_olt2I8dJTzz4kXaU-18">
          <mxGeometry y="90" width="146" height="30" as="geometry" />
        </mxCell>
        <mxCell id="M7i_olt2I8dJTzz4kXaU-22" value="trials" style="text;strokeColor=none;fillColor=none;align=left;verticalAlign=middle;spacingLeft=4;spacingRight=4;overflow=hidden;points=[[0,0.5],[1,0.5]];portConstraint=eastwest;rotatable=0;whiteSpace=wrap;html=1;" vertex="1" parent="M7i_olt2I8dJTzz4kXaU-18">
          <mxGeometry y="120" width="146" height="30" as="geometry" />
        </mxCell>
        <mxCell id="M7i_olt2I8dJTzz4kXaU-23" value="offset" style="text;strokeColor=none;fillColor=none;align=left;verticalAlign=middle;spacingLeft=4;spacingRight=4;overflow=hidden;points=[[0,0.5],[1,0.5]];portConstraint=eastwest;rotatable=0;whiteSpace=wrap;html=1;" vertex="1" parent="M7i_olt2I8dJTzz4kXaU-18">
          <mxGeometry y="150" width="146" height="30" as="geometry" />
        </mxCell>
        <mxCell id="M7i_olt2I8dJTzz4kXaU-39" style="edgeStyle=orthogonalEdgeStyle;curved=1;rounded=0;orthogonalLoop=1;jettySize=auto;html=1;exitX=0.5;exitY=1;exitDx=0;exitDy=0;entryX=0.5;entryY=0;entryDx=0;entryDy=0;fontSize=12;startSize=8;endSize=8;" edge="1" parent="WIyWlLk6GJQsqaUBKTNV-1" source="M7i_olt2I8dJTzz4kXaU-30" target="T8E9cE-NdubUiAm9jBST-76">
          <mxGeometry relative="1" as="geometry">
            <Array as="points">
              <mxPoint x="1390" y="793" />
              <mxPoint x="1055" y="793" />
            </Array>
          </mxGeometry>
        </mxCell>
        <mxCell id="M7i_olt2I8dJTzz4kXaU-40" style="edgeStyle=orthogonalEdgeStyle;curved=1;rounded=0;orthogonalLoop=1;jettySize=auto;html=1;exitX=0.5;exitY=1;exitDx=0;exitDy=0;entryX=0.5;entryY=0;entryDx=0;entryDy=0;fontSize=12;startSize=8;endSize=8;" edge="1" parent="WIyWlLk6GJQsqaUBKTNV-1" source="M7i_olt2I8dJTzz4kXaU-30" target="T8E9cE-NdubUiAm9jBST-80">
          <mxGeometry relative="1" as="geometry">
            <Array as="points">
              <mxPoint x="1390" y="803" />
              <mxPoint x="1223" y="803" />
            </Array>
          </mxGeometry>
        </mxCell>
        <mxCell id="M7i_olt2I8dJTzz4kXaU-41" style="edgeStyle=orthogonalEdgeStyle;curved=1;rounded=0;orthogonalLoop=1;jettySize=auto;html=1;exitX=0.5;exitY=1;exitDx=0;exitDy=0;entryX=0.5;entryY=0;entryDx=0;entryDy=0;fontSize=12;startSize=8;endSize=8;" edge="1" parent="WIyWlLk6GJQsqaUBKTNV-1" source="M7i_olt2I8dJTzz4kXaU-30" target="T8E9cE-NdubUiAm9jBST-34">
          <mxGeometry relative="1" as="geometry" />
        </mxCell>
        <mxCell id="M7i_olt2I8dJTzz4kXaU-42" style="edgeStyle=orthogonalEdgeStyle;curved=1;rounded=0;orthogonalLoop=1;jettySize=auto;html=1;exitX=0.5;exitY=1;exitDx=0;exitDy=0;entryX=0.5;entryY=0;entryDx=0;entryDy=0;fontSize=12;startSize=8;endSize=8;" edge="1" parent="WIyWlLk6GJQsqaUBKTNV-1" source="M7i_olt2I8dJTzz4kXaU-30" target="T8E9cE-NdubUiAm9jBST-30">
          <mxGeometry relative="1" as="geometry">
            <Array as="points">
              <mxPoint x="1389" y="840" />
              <mxPoint x="1557" y="840" />
            </Array>
          </mxGeometry>
        </mxCell>
        <mxCell id="M7i_olt2I8dJTzz4kXaU-49" style="edgeStyle=orthogonalEdgeStyle;curved=1;rounded=0;orthogonalLoop=1;jettySize=auto;html=1;exitX=0.5;exitY=1;exitDx=0;exitDy=0;entryX=0.5;entryY=0;entryDx=0;entryDy=0;fontSize=12;startSize=8;endSize=8;" edge="1" parent="WIyWlLk6GJQsqaUBKTNV-1" source="M7i_olt2I8dJTzz4kXaU-30" target="T8E9cE-NdubUiAm9jBST-46">
          <mxGeometry relative="1" as="geometry">
            <Array as="points">
              <mxPoint x="1390" y="783" />
              <mxPoint x="885" y="783" />
            </Array>
          </mxGeometry>
        </mxCell>
        <mxCell id="M7i_olt2I8dJTzz4kXaU-50" style="edgeStyle=orthogonalEdgeStyle;curved=1;rounded=0;orthogonalLoop=1;jettySize=auto;html=1;exitX=0.5;exitY=1;exitDx=0;exitDy=0;entryX=0.5;entryY=0;entryDx=0;entryDy=0;fontSize=12;startSize=8;endSize=8;" edge="1" parent="WIyWlLk6GJQsqaUBKTNV-1" source="M7i_olt2I8dJTzz4kXaU-30" target="T8E9cE-NdubUiAm9jBST-72">
          <mxGeometry relative="1" as="geometry">
            <Array as="points">
              <mxPoint x="1390" y="773" />
              <mxPoint x="716" y="773" />
            </Array>
          </mxGeometry>
        </mxCell>
        <mxCell id="M7i_olt2I8dJTzz4kXaU-51" style="edgeStyle=orthogonalEdgeStyle;curved=1;rounded=0;orthogonalLoop=1;jettySize=auto;html=1;exitX=0.5;exitY=1;exitDx=0;exitDy=0;entryX=0.5;entryY=0;entryDx=0;entryDy=0;fontSize=12;startSize=8;endSize=8;" edge="1" parent="WIyWlLk6GJQsqaUBKTNV-1" source="M7i_olt2I8dJTzz4kXaU-30" target="T8E9cE-NdubUiAm9jBST-50">
          <mxGeometry relative="1" as="geometry">
            <Array as="points">
              <mxPoint x="1390" y="763" />
              <mxPoint x="383" y="763" />
            </Array>
          </mxGeometry>
        </mxCell>
        <mxCell id="M7i_olt2I8dJTzz4kXaU-57" style="edgeStyle=orthogonalEdgeStyle;curved=1;rounded=0;orthogonalLoop=1;jettySize=auto;html=1;exitX=0.5;exitY=1;exitDx=0;exitDy=0;entryX=0.5;entryY=0;entryDx=0;entryDy=0;fontSize=12;startSize=8;endSize=8;" edge="1" parent="WIyWlLk6GJQsqaUBKTNV-1" source="M7i_olt2I8dJTzz4kXaU-30" target="T8E9cE-NdubUiAm9jBST-68">
          <mxGeometry relative="1" as="geometry" />
        </mxCell>
        <mxCell id="M7i_olt2I8dJTzz4kXaU-62" style="edgeStyle=orthogonalEdgeStyle;curved=1;rounded=0;orthogonalLoop=1;jettySize=auto;html=1;exitX=1;exitY=0.5;exitDx=0;exitDy=0;entryX=0.5;entryY=0;entryDx=0;entryDy=0;fontSize=12;startSize=8;endSize=8;" edge="1" parent="WIyWlLk6GJQsqaUBKTNV-1" source="M7i_olt2I8dJTzz4kXaU-30" target="T8E9cE-NdubUiAm9jBST-18">
          <mxGeometry relative="1" as="geometry" />
        </mxCell>
        <mxCell id="M7i_olt2I8dJTzz4kXaU-30" value="timestamp vector" style="rounded=0;whiteSpace=wrap;html=1;fontSize=16;" vertex="1" parent="WIyWlLk6GJQsqaUBKTNV-1">
          <mxGeometry x="1319" y="655" width="141" height="60" as="geometry" />
        </mxCell>
        <mxCell id="M7i_olt2I8dJTzz4kXaU-44" style="edgeStyle=orthogonalEdgeStyle;curved=1;rounded=0;orthogonalLoop=1;jettySize=auto;html=1;entryX=0.5;entryY=0;entryDx=0;entryDy=0;fontSize=12;startSize=8;endSize=8;" edge="1" parent="WIyWlLk6GJQsqaUBKTNV-1" target="T8E9cE-NdubUiAm9jBST-88">
          <mxGeometry relative="1" as="geometry">
            <mxPoint x="820" y="345" as="sourcePoint" />
          </mxGeometry>
        </mxCell>
        <mxCell id="M7i_olt2I8dJTzz4kXaU-45" style="edgeStyle=orthogonalEdgeStyle;curved=1;rounded=0;orthogonalLoop=1;jettySize=auto;html=1;exitX=0;exitY=0.5;exitDx=0;exitDy=0;entryX=0.5;entryY=0;entryDx=0;entryDy=0;fontSize=12;startSize=8;endSize=8;" edge="1" parent="WIyWlLk6GJQsqaUBKTNV-1" source="T8E9cE-NdubUiAm9jBST-5" target="T8E9cE-NdubUiAm9jBST-92">
          <mxGeometry relative="1" as="geometry" />
        </mxCell>
        <mxCell id="M7i_olt2I8dJTzz4kXaU-47" style="edgeStyle=orthogonalEdgeStyle;curved=1;rounded=0;orthogonalLoop=1;jettySize=auto;html=1;exitX=1;exitY=0.5;exitDx=0;exitDy=0;entryX=0.5;entryY=0;entryDx=0;entryDy=0;fontSize=12;startSize=8;endSize=8;" edge="1" parent="WIyWlLk6GJQsqaUBKTNV-1" source="T8E9cE-NdubUiAm9jBST-4" target="T8E9cE-NdubUiAm9jBST-10">
          <mxGeometry relative="1" as="geometry" />
        </mxCell>
        <mxCell id="M7i_olt2I8dJTzz4kXaU-54" style="edgeStyle=orthogonalEdgeStyle;curved=1;rounded=0;orthogonalLoop=1;jettySize=auto;html=1;entryX=0.5;entryY=0;entryDx=0;entryDy=0;fontSize=12;startSize=8;endSize=8;" edge="1" parent="WIyWlLk6GJQsqaUBKTNV-1" source="M7i_olt2I8dJTzz4kXaU-53" target="T8E9cE-NdubUiAm9jBST-50">
          <mxGeometry relative="1" as="geometry" />
        </mxCell>
        <mxCell id="M7i_olt2I8dJTzz4kXaU-55" style="edgeStyle=orthogonalEdgeStyle;curved=1;rounded=0;orthogonalLoop=1;jettySize=auto;html=1;entryX=0.5;entryY=0;entryDx=0;entryDy=0;fontSize=12;startSize=8;endSize=8;" edge="1" parent="WIyWlLk6GJQsqaUBKTNV-1" source="M7i_olt2I8dJTzz4kXaU-53" target="T8E9cE-NdubUiAm9jBST-63">
          <mxGeometry relative="1" as="geometry" />
        </mxCell>
        <mxCell id="M7i_olt2I8dJTzz4kXaU-59" style="edgeStyle=orthogonalEdgeStyle;curved=1;rounded=0;orthogonalLoop=1;jettySize=auto;html=1;entryX=0.5;entryY=0;entryDx=0;entryDy=0;fontSize=12;startSize=8;endSize=8;exitX=0.548;exitY=0.983;exitDx=0;exitDy=0;exitPerimeter=0;" edge="1" parent="WIyWlLk6GJQsqaUBKTNV-1" source="T8E9cE-NdubUiAm9jBST-53" target="T8E9cE-NdubUiAm9jBST-84">
          <mxGeometry relative="1" as="geometry">
            <Array as="points">
              <mxPoint x="390" y="984" />
              <mxPoint x="253" y="984" />
            </Array>
          </mxGeometry>
        </mxCell>
        <mxCell id="M7i_olt2I8dJTzz4kXaU-60" style="edgeStyle=orthogonalEdgeStyle;curved=1;rounded=0;orthogonalLoop=1;jettySize=auto;html=1;exitX=0;exitY=0.5;exitDx=0;exitDy=0;entryX=0.5;entryY=0;entryDx=0;entryDy=0;fontSize=12;startSize=8;endSize=8;" edge="1" parent="WIyWlLk6GJQsqaUBKTNV-1" source="M7i_olt2I8dJTzz4kXaU-53" target="T8E9cE-NdubUiAm9jBST-84">
          <mxGeometry relative="1" as="geometry" />
        </mxCell>
      </root>
    </mxGraphModel>
  </diagram>
</mxfile>
